/* XPM */
static char * eXaDrums_xpm[] = {
"32 32 37 1",
" 	c None",
".	c #FED834",
"+	c #737373",
"@	c #FFDB32",
"#	c #C0AB50",
"$	c #B8A555",
"%	c #B6A455",
"&	c #FFD834",
"*	c #FED734",
"=	c #FED934",
"-	c #C2AC50",
";	c #FED835",
">	c #FED733",
",	c #FDD834",
"'	c #FDD734",
")	c #FF6105",
"!	c #FF6106",
"~	c #FED833",
"{	c #F2CF39",
"]	c #F7D337",
"^	c #F4D138",
"/	c #F3D038",
"(	c #F4D139",
"_	c #6F7074",
":	c #717174",
"<	c #6C6E76",
"[	c #696C77",
"}	c #FFFFFF",
"|	c #AF9F58",
"1	c #B1A057",
"2	c #FFD933",
"3	c #FFDA33",
"4	c #B5A354",
"5	c #727374",
"6	c #727373",
"7	c #AD9D59",
"8	c #FFD932",
"                                ",
" ..          ++++++          .. ",
" ..    ++++++      ++++++    .. ",
"   .   +++            +++   .   ",
"    .  +                +  .    ",
"     @#                  $@     ",
"     %&*                =.-     ",
"    + ;..              ... +    ",
"   +   >..            >..   +   ",
"   +    >..          >..    +   ",
"  +      >..        >..      +  ",
"  +       >..      ,..       +  ",
" +         >..    '..         + ",
" +     ))   >..  '..  ))!     + ",
"++    )  )   >.....      )    ++",
"++    ))))    ~...     )))    ++",
"++    )       '...    )  )    ++",
" +    )      '..*..   )  )    + ",
" +     )))  '..  >..   ))     + ",
" +         '..    >..         + ",
"  +       {]^      /](       +  ",
"  ++++++++++_++++++:<[++++++++  ",
"   +++}}++}}++}+}+}+++}++}}++   ",
"   +++}+}+}+}+}+}+}}+}}+}++++   ",
"    ++}+}+}}++}+}+}+}+}+++}+    ",
"     |}}++}+}+}}}+}+++}+}}1     ",
"    2345++++++++++++++++67@2    ",
"   '.2 +                + 8..   ",
"  ...  +++            +++  >..  ",
"  ..   +++++        +++++   >.  ",
"            ++++++++            ",
"                                "};
